<svg width="31" height="16" viewBox="0 0 31 16" fill="none" xmlns="http://www.w3.org/2000/svg">
<path d="M1.93848 7C1.38619 7 0.938477 7.44772 0.938477 8C0.938477 8.55228 1.38619 9 1.93848 9L1.93848 7ZM30.6456 8.70711C31.0361 8.31658 31.0361 7.68342 30.6456 7.29289L24.2816 0.928932C23.8911 0.538408 23.2579 0.538408 22.8674 0.928932C22.4769 1.31946 22.4769 1.95262 22.8674 2.34315L28.5243 8L22.8674 13.6569C22.4769 14.0474 22.4769 14.6805 22.8674 15.0711C23.2579 15.4616 23.8911 15.4616 24.2816 15.0711L30.6456 8.70711ZM1.93848 9L29.9385 9V7L1.93848 7L1.93848 9Z" fill="url(#paint0_linear_1_325)"/>
<defs>
<linearGradient id="paint0_linear_1_325" x1="3.43848" y1="7.5" x2="31.9385" y2="10.5" gradientUnits="userSpaceOnUse">
<stop stop-color="#00FFC6"/>
<stop offset="1" stop-color="#00FFC6"/>
</linearGradient>
</defs>
</svg>
